<svg width="512" height="512" viewBox="0 0 512 512" fill="none" xmlns="http://www.w3.org/2000/svg">
  <!-- Background with gradient -->
  <defs>
    <linearGradient id="bgGradient" x1="0%" y1="0%" x2="100%" y2="100%">
      <stop offset="0%" style="stop-color:#1e40af;stop-opacity:1" />
      <stop offset="100%" style="stop-color:#dc2626;stop-opacity:1" />
    </linearGradient>
    <linearGradient id="textGradient" x1="0%" y1="0%" x2="100%" y2="100%">
      <stop offset="0%" style="stop-color:#ffffff;stop-opacity:1" />
      <stop offset="50%" style="stop-color:#f8fafc;stop-opacity:1" />
      <stop offset="100%" style="stop-color:#e2e8f0;stop-opacity:1" />
    </linearGradient>
    <filter id="shadow" x="-20%" y="-20%" width="140%" height="140%">
      <dropShadow dx="4" dy="4" stdDeviation="8" flood-color="#000000" flood-opacity="0.3"/>
    </filter>
  </defs>
  
  <!-- Background circle with gradient -->
  <circle cx="256" cy="256" r="240" fill="url(#bgGradient)" filter="url(#shadow)"/>
  
  <!-- Inner circle for depth -->
  <circle cx="256" cy="256" r="220" fill="none" stroke="rgba(255,255,255,0.2)" stroke-width="2"/>
  
  <!-- Letter S -->
  <path d="M180 180 Q180 140 220 140 L320 140 Q360 140 360 180 Q360 220 320 220 L240 220 Q200 220 200 260 Q200 300 240 300 L320 300 Q360 300 360 340 Q360 380 320 380 L220 380 Q180 380 180 340" 
        fill="url(#textGradient)" 
        stroke="rgba(255,255,255,0.3)" 
        stroke-width="3" 
        filter="url(#shadow)"/>
  
  <!-- Decorative dots -->
  <circle cx="150" cy="150" r="6" fill="rgba(255,255,255,0.4)"/>
  <circle cx="362" cy="150" r="4" fill="rgba(255,255,255,0.3)"/>
  <circle cx="150" cy="362" r="4" fill="rgba(255,255,255,0.3)"/>
  <circle cx="362" cy="362" r="6" fill="rgba(255,255,255,0.4)"/>
</svg>
